<svg width="16" height="16" viewBox="0 0 16 16" fill="none" xmlns="http://www.w3.org/2000/svg">
<g clip-path="url(#clip0_1567_15164)">
<path d="M14.5455 7.27288C13.0909 7.27288 12.3636 5.09106 10.1818 5.09106C8 5.09106 8 6.54561 8 6.54561C8 6.54561 8 5.09106 5.81818 5.09106C3.63636 5.09106 2.90909 7.27288 1.45455 7.27288C0.727273 7.27288 0 6.54561 0 6.54561C0 6.54561 0.727273 10.182 3.63636 10.182C7.27273 10.182 8 8.00016 8 8.00016C8 8.00016 8.72727 10.182 12.3636 10.182C15.2727 10.182 16 6.54561 16 6.54561C16 6.54561 15.2727 7.27288 14.5455 7.27288Z" fill="white"/>
</g>
<defs>
<clipPath id="clip0_1567_15164">
<rect width="16" height="16" fill="white"/>
</clipPath>
</defs>
</svg>
