<svg width="16" height="16" viewBox="0 0 16 16" fill="none" xmlns="http://www.w3.org/2000/svg">
<path fill-rule="evenodd" clip-rule="evenodd" d="M0.418765 2.43552C0.0340956 3.09987 -0.0913672 3.88298 0.0665055 4.63425C0.224378 5.38552 0.654438 6.05189 1.27398 6.50521C1.89351 6.95853 2.65878 7.16679 3.4226 7.08993C4.18642 7.01307 4.89485 6.65652 5.41165 6.08886L6.19654 6.54219C6.21876 6.62397 6.32721 6.6453 6.38321 6.58041C6.51713 6.42338 6.66528 6.27997 6.82765 6.15019C7.08188 5.94575 7.09432 5.51997 6.81165 5.3573L6.07832 4.9333C6.30766 4.20302 6.2598 3.41382 5.9439 2.7166C5.628 2.01938 5.06622 1.46304 4.36596 1.15394C3.66569 0.844835 2.87608 0.804658 2.14806 1.04109C1.42004 1.27752 0.804689 1.77396 0.419654 2.43552M2.2241 5.53063C2.02028 5.41475 1.8414 5.2597 1.69776 5.07441C1.55411 4.88912 1.44853 4.67724 1.3871 4.45098C1.32567 4.22471 1.30961 3.98853 1.33983 3.75604C1.37005 3.52354 1.44596 3.29932 1.56319 3.09627C1.68041 2.89323 1.83665 2.71539 2.02289 2.57297C2.20913 2.43055 2.42171 2.32639 2.64837 2.26646C2.87504 2.20653 3.11132 2.19203 3.34361 2.22379C3.5759 2.25555 3.79962 2.33295 4.00188 2.45152C4.40687 2.68895 4.70151 3.07692 4.8215 3.53078C4.94149 3.98464 4.8771 4.46754 4.64236 4.87409C4.40763 5.28065 4.02162 5.57785 3.56857 5.70085C3.11552 5.82386 2.6322 5.76266 2.2241 5.53063ZM7.96276 6.49952C7.61968 6.64415 7.31416 6.86524 7.06953 7.14592C6.8249 7.4266 6.64761 7.75945 6.55121 8.11908L6.19743 9.43997L5.41165 9.8933C4.8939 9.32888 4.18619 8.97522 3.42397 8.9C2.66176 8.82479 1.89857 9.0333 1.28049 9.48564C0.662403 9.93797 0.23284 10.6024 0.0740121 11.3516C-0.0848154 12.1009 0.0382499 12.8824 0.419654 13.5466C0.803045 14.2112 1.4185 14.7107 2.14779 14.9492C2.87707 15.1876 3.66873 15.1481 4.37067 14.8383C5.07262 14.5285 5.63532 13.9703 5.95069 13.2708C6.26605 12.5713 6.31182 11.78 6.07921 11.0489L15.5725 5.56797C15.6864 5.50186 15.7782 5.4035 15.8363 5.28529C15.8943 5.16709 15.9161 5.03433 15.8988 4.90378C15.8815 4.77323 15.8259 4.65073 15.739 4.55173C15.6522 4.45273 15.538 4.38167 15.4108 4.34752L14.7859 4.17952C14.261 4.0391 13.7043 4.07757 13.2037 4.28886L7.96276 6.49952ZM1.57343 12.88C1.45486 12.6777 1.37746 12.454 1.3457 12.2217C1.31394 11.9894 1.32844 11.7531 1.38837 11.5265C1.44829 11.2998 1.55246 11.0872 1.69488 10.901C1.83729 10.7147 2.01514 10.5585 2.21818 10.4413C2.42122 10.324 2.64545 10.2481 2.87794 10.2179C3.11044 10.1877 3.34662 10.2038 3.57288 10.2652C3.79915 10.3266 4.01102 10.4322 4.19632 10.5758C4.38161 10.7195 4.53666 10.8984 4.65254 11.1022C4.88457 11.5103 4.94576 11.9936 4.82276 12.4467C4.69976 12.8997 4.40255 13.2857 3.996 13.5205C3.58944 13.7552 3.10655 13.8196 2.65269 13.6996C2.19883 13.5796 1.81085 13.285 1.57343 12.88Z" fill="white"/>
<path d="M10.2419 9.67125C10.1702 9.71261 10.1115 9.77316 10.0724 9.84609C10.0332 9.91901 10.0152 10.0014 10.0204 10.084C10.0256 10.1666 10.0537 10.2461 10.1016 10.3136C10.1496 10.3811 10.2154 10.4338 10.2917 10.4659L13.2019 11.6935C13.7025 11.9048 14.2592 11.9432 14.7841 11.8028L15.4099 11.6348C15.537 11.6004 15.651 11.5292 15.7377 11.4301C15.8243 11.331 15.8797 11.2085 15.8968 11.0779C15.9139 10.9474 15.892 10.8147 15.8338 10.6966C15.7757 10.5786 15.6838 10.4803 15.5699 10.4144L12.4854 8.63303C12.4179 8.59402 12.3412 8.57349 12.2632 8.57349C12.1852 8.57349 12.1086 8.59402 12.041 8.63303L10.2419 9.67125Z" fill="white"/>
</svg>
