<svg width="17" height="17" viewBox="0 0 17 17" fill="none" xmlns="http://www.w3.org/2000/svg">
<path d="M2.26 5.43571C2.85429 4.25232 3.76598 3.25751 4.89317 2.56248C6.02035 1.86745 7.31862 1.49958 8.64286 1.5C10.5679 1.5 12.185 2.20786 13.4214 3.36071L11.3736 5.40929C10.6329 4.70143 9.69143 4.34071 8.64286 4.34071C6.78214 4.34071 5.20714 5.59786 4.64643 7.28572C4.50357 7.71429 4.42214 8.17143 4.42214 8.64286C4.42214 9.11429 4.50357 9.57143 4.64643 10C5.20786 11.6886 6.78214 12.945 8.64286 12.945C9.60357 12.945 10.4214 12.6914 11.0614 12.2629C11.4325 12.0186 11.7501 11.7016 11.9951 11.3311C12.2402 10.9605 12.4076 10.5442 12.4871 10.1071H8.64286V7.34429H15.37C15.4543 7.81143 15.5 8.29857 15.5 8.805C15.5 10.9807 14.7214 12.8121 13.37 14.055C12.1886 15.1464 10.5714 15.7857 8.64286 15.7857C7.70474 15.7861 6.77574 15.6016 5.90896 15.2428C5.04218 14.8839 4.25461 14.3578 3.59126 13.6945C2.92791 13.0311 2.40178 12.2435 2.04295 11.3768C1.68412 10.51 1.49963 9.58098 1.5 8.64286C1.5 7.49 1.77571 6.4 2.26 5.43571Z" fill="white"/>
</svg>
