<svg width="16" height="16" viewBox="0 0 16 16" fill="none" xmlns="http://www.w3.org/2000/svg">
<path d="M4.36328 8.72718C4.36328 7.76276 4.7464 6.83784 5.42835 6.15589C6.1103 5.47394 7.03522 5.09082 7.99964 5.09082C8.96407 5.09082 9.88899 5.47394 10.5709 6.15589C11.2529 6.83784 11.636 7.76276 11.636 8.72718V12.3635C11.636 13.7352 11.636 14.4203 11.2098 14.8465C10.7836 15.2726 10.0986 15.2726 8.72692 15.2726H7.27237C5.90074 15.2726 5.21564 15.2726 4.78946 14.8465C4.36328 14.4203 4.36328 13.7352 4.36328 12.3635V8.72718Z" stroke="white" stroke-width="1.2" stroke-linecap="round" stroke-linejoin="round"/>
<path d="M6.5451 5.09093V4.36366C6.5451 3.67784 6.5451 3.3353 6.75819 3.1222C6.97128 2.90911 7.31383 2.90911 7.99964 2.90911M7.99964 2.90911C8.68546 2.90911 9.02801 2.90911 9.2411 3.1222C9.45419 3.3353 9.45419 3.67784 9.45419 4.36366V5.09093M7.99964 2.90911V0.727295M7.99964 0.727295H6.5451M7.99964 0.727295H9.99601C10.5467 0.727435 11.0769 0.935792 11.4804 1.31057L11.636 1.45457M4.36328 8.7273H11.636" stroke="white" stroke-width="1.2" stroke-linecap="round" stroke-linejoin="round"/>
<rect x="4" y="9" width="8" height="6" rx="1" fill="white"/>
</svg>
