<svg width="16" height="16" viewBox="0 0 16 16" fill="none" xmlns="http://www.w3.org/2000/svg">
<g clip-path="url(#clip0_1950_11384)">
<path d="M14.7692 1.84615V9.84615C14.7694 9.93052 14.7522 10.014 14.7188 10.0915C14.6853 10.1689 14.6363 10.2387 14.5748 10.2964C14.5132 10.3541 14.4405 10.3985 14.3611 10.4269C14.2816 10.4553 14.1972 10.4671 14.113 10.4615C13.9548 10.4479 13.8075 10.3749 13.7009 10.2572C13.5943 10.1395 13.5363 9.98574 13.5384 9.82692V1.84615C13.5386 1.76165 13.5214 1.67802 13.4879 1.60046C13.4543 1.5229 13.4052 1.45308 13.3435 1.39534C13.2818 1.33761 13.2088 1.2932 13.1292 1.26489C13.0496 1.23657 12.965 1.22496 12.8807 1.23077C12.7225 1.24511 12.5755 1.3187 12.4692 1.43681C12.363 1.55492 12.3052 1.70883 12.3076 1.86769V12C12.3076 12.0816 12.2752 12.1599 12.2175 12.2176C12.1598 12.2753 12.0815 12.3077 11.9999 12.3077H1.53841C1.4568 12.3077 1.37854 12.2753 1.32083 12.2176C1.26313 12.1599 1.23071 12.0816 1.23071 12V1.84615C1.23071 1.35652 1.42522 0.886947 1.77144 0.540726C2.11766 0.194505 2.58724 0 3.07687 0H12.923C13.4127 0 13.8822 0.194505 14.2284 0.540726C14.5747 0.886947 14.7692 1.35652 14.7692 1.84615ZM11.9999 13.5385H1.53841C1.4568 13.5385 1.37854 13.5709 1.32083 13.6286C1.26313 13.6863 1.23071 13.7645 1.23071 13.8462V14.7692C1.23071 15.0957 1.36038 15.4087 1.5912 15.6395C1.82201 15.8703 2.13506 16 2.46148 16H11.0769C11.4033 16 11.7163 15.8703 11.9472 15.6395C12.178 15.4087 12.3076 15.0957 12.3076 14.7692V13.8462C12.3076 13.7645 12.2752 13.6863 12.2175 13.6286C12.1598 13.5709 12.0815 13.5385 11.9999 13.5385Z" fill="white"/>
</g>
<defs>
<clipPath id="clip0_1950_11384">
<rect width="16" height="16" fill="white"/>
</clipPath>
</defs>
</svg>
