<svg width="16" height="16" viewBox="0 0 16 16" fill="none" xmlns="http://www.w3.org/2000/svg">
<g clip-path="url(#clip0_3578_5513)">
<path d="M13.0452 6.0814C14.2837 6.63995 15.3514 7.47849 15.9274 8.66613C15.9873 8.78979 16.011 8.92791 15.9957 9.06449C15.9804 9.20107 15.9267 9.33051 15.8409 9.43783C15.755 9.54515 15.6405 9.62595 15.5106 9.67086C15.3807 9.71577 15.2408 9.72295 15.107 9.69158C10.7746 8.67631 6.39208 10.4218 4.08153 11.3745C2.63135 11.9723 1.22335 11.4843 0.495351 10.501C0.116753 9.99991 -0.0543567 9.37225 0.0175326 8.74831C0.264805 6.70831 2.82917 5.83558 4.52081 5.45158C7.27062 4.82831 10.4466 4.90758 13.0452 6.08067V6.0814Z" fill="white"/>
</g>
<defs>
<clipPath id="clip0_3578_5513">
<rect width="16" height="16" fill="white"/>
</clipPath>
</defs>
</svg>
