<svg width="16" height="16" viewBox="0 0 16 16" fill="none" xmlns="http://www.w3.org/2000/svg">
<g clip-path="url(#clip0_1950_11378)">
<path d="M13.0452 6.08189C14.2837 6.64044 15.3514 7.47898 15.9274 8.66662C15.9873 8.79027 16.011 8.92839 15.9957 9.06497C15.9804 9.20155 15.9267 9.331 15.8409 9.43832C15.755 9.54564 15.6405 9.62643 15.5106 9.67134C15.3807 9.71625 15.2408 9.72344 15.107 9.69207C10.7746 8.6768 6.39208 10.4223 4.08153 11.375C2.63135 11.9728 1.22335 11.4848 0.495351 10.5015C0.116753 10.0004 -0.0543567 9.37274 0.0175326 8.7488C0.264805 6.7088 2.82917 5.83607 4.52081 5.45207C7.27062 4.8288 10.4466 4.90807 13.0452 6.08116V6.08189Z" fill="white"/>
</g>
<defs>
<clipPath id="clip0_1950_11378">
<rect width="16" height="16" fill="white"/>
</clipPath>
</defs>
</svg>
